<mxfile host="app.diagrams.net" modified="2023-09-07T01:03:22.064Z" agent="Mozilla/5.0 (Windows NT 10.0; Win64; x64) AppleWebKit/537.36 (KHTML, like Gecko) Chrome/115.0.0.0 Safari/537.36" etag="_SQnffbTCgGvQe3CzqPL" version="21.3.6" type="device">
  <diagram name="Página-1" id="tzy9iAwBWGr30Zy9T8hk">
    <mxGraphModel dx="880" dy="446" grid="1" gridSize="10" guides="1" tooltips="1" connect="1" arrows="1" fold="1" page="1" pageScale="1" pageWidth="827" pageHeight="1169" math="0" shadow="0">
      <root>
        <mxCell id="0" />
        <mxCell id="1" parent="0" />
        <mxCell id="HaZne8GFirjWYQ7DcE6A-3" style="edgeStyle=orthogonalEdgeStyle;rounded=0;orthogonalLoop=1;jettySize=auto;html=1;entryX=0;entryY=0.5;entryDx=0;entryDy=0;" edge="1" parent="1" source="HaZne8GFirjWYQ7DcE6A-1" target="HaZne8GFirjWYQ7DcE6A-2">
          <mxGeometry relative="1" as="geometry" />
        </mxCell>
        <mxCell id="HaZne8GFirjWYQ7DcE6A-1" value="Docente" style="shape=umlActor;verticalLabelPosition=bottom;verticalAlign=top;html=1;" vertex="1" parent="1">
          <mxGeometry x="90" y="180" width="30" height="60" as="geometry" />
        </mxCell>
        <mxCell id="HaZne8GFirjWYQ7DcE6A-2" value="Emite protocolo eletrônico&amp;nbsp;" style="ellipse;whiteSpace=wrap;html=1;" vertex="1" parent="1">
          <mxGeometry x="360" y="175" width="140" height="70" as="geometry" />
        </mxCell>
        <mxCell id="HaZne8GFirjWYQ7DcE6A-7" style="edgeStyle=orthogonalEdgeStyle;rounded=0;orthogonalLoop=1;jettySize=auto;html=1;entryX=0;entryY=0.5;entryDx=0;entryDy=0;" edge="1" parent="1" source="HaZne8GFirjWYQ7DcE6A-4" target="HaZne8GFirjWYQ7DcE6A-5">
          <mxGeometry relative="1" as="geometry" />
        </mxCell>
        <mxCell id="HaZne8GFirjWYQ7DcE6A-4" value="Secretaria da CAUAE" style="shape=umlActor;verticalLabelPosition=bottom;verticalAlign=top;html=1;" vertex="1" parent="1">
          <mxGeometry x="90" y="310" width="30" height="60" as="geometry" />
        </mxCell>
        <mxCell id="HaZne8GFirjWYQ7DcE6A-10" style="edgeStyle=orthogonalEdgeStyle;rounded=0;orthogonalLoop=1;jettySize=auto;html=1;entryX=0.5;entryY=0.5;entryDx=0;entryDy=0;entryPerimeter=0;" edge="1" parent="1" source="HaZne8GFirjWYQ7DcE6A-5" target="HaZne8GFirjWYQ7DcE6A-6">
          <mxGeometry relative="1" as="geometry" />
        </mxCell>
        <mxCell id="HaZne8GFirjWYQ7DcE6A-5" value="envia protocolo a um parecerista" style="ellipse;whiteSpace=wrap;html=1;" vertex="1" parent="1">
          <mxGeometry x="370" y="305" width="140" height="70" as="geometry" />
        </mxCell>
        <mxCell id="HaZne8GFirjWYQ7DcE6A-6" value="Parececista" style="shape=umlActor;verticalLabelPosition=bottom;verticalAlign=top;html=1;" vertex="1" parent="1">
          <mxGeometry x="730" y="310" width="30" height="60" as="geometry" />
        </mxCell>
        <mxCell id="HaZne8GFirjWYQ7DcE6A-13" style="edgeStyle=orthogonalEdgeStyle;rounded=0;orthogonalLoop=1;jettySize=auto;html=1;entryX=0;entryY=0.5;entryDx=0;entryDy=0;" edge="1" parent="1" source="HaZne8GFirjWYQ7DcE6A-11" target="HaZne8GFirjWYQ7DcE6A-12">
          <mxGeometry relative="1" as="geometry" />
        </mxCell>
        <mxCell id="HaZne8GFirjWYQ7DcE6A-11" value="Parececista" style="shape=umlActor;verticalLabelPosition=bottom;verticalAlign=top;html=1;" vertex="1" parent="1">
          <mxGeometry x="90" y="450" width="30" height="60" as="geometry" />
        </mxCell>
        <mxCell id="HaZne8GFirjWYQ7DcE6A-12" value="Emite parecer" style="ellipse;whiteSpace=wrap;html=1;" vertex="1" parent="1">
          <mxGeometry x="370" y="445" width="140" height="70" as="geometry" />
        </mxCell>
        <mxCell id="HaZne8GFirjWYQ7DcE6A-14" style="edgeStyle=orthogonalEdgeStyle;rounded=0;orthogonalLoop=1;jettySize=auto;html=1;entryX=0;entryY=0.5;entryDx=0;entryDy=0;" edge="1" parent="1" source="HaZne8GFirjWYQ7DcE6A-15" target="HaZne8GFirjWYQ7DcE6A-16">
          <mxGeometry relative="1" as="geometry" />
        </mxCell>
        <mxCell id="HaZne8GFirjWYQ7DcE6A-15" value="Presidente da CAUAE" style="shape=umlActor;verticalLabelPosition=bottom;verticalAlign=top;html=1;" vertex="1" parent="1">
          <mxGeometry x="90" y="585" width="30" height="60" as="geometry" />
        </mxCell>
        <mxCell id="HaZne8GFirjWYQ7DcE6A-16" value="Aprovação final" style="ellipse;whiteSpace=wrap;html=1;" vertex="1" parent="1">
          <mxGeometry x="370" y="580" width="140" height="70" as="geometry" />
        </mxCell>
        <mxCell id="HaZne8GFirjWYQ7DcE6A-17" style="edgeStyle=orthogonalEdgeStyle;rounded=0;orthogonalLoop=1;jettySize=auto;html=1;entryX=0;entryY=0.5;entryDx=0;entryDy=0;" edge="1" parent="1" source="HaZne8GFirjWYQ7DcE6A-18" target="HaZne8GFirjWYQ7DcE6A-19">
          <mxGeometry relative="1" as="geometry" />
        </mxCell>
        <mxCell id="HaZne8GFirjWYQ7DcE6A-18" value="Secretária da comissão" style="shape=umlActor;verticalLabelPosition=bottom;verticalAlign=top;html=1;" vertex="1" parent="1">
          <mxGeometry x="90" y="705" width="30" height="60" as="geometry" />
        </mxCell>
        <mxCell id="HaZne8GFirjWYQ7DcE6A-19" value="Emite em papel o certificado" style="ellipse;whiteSpace=wrap;html=1;" vertex="1" parent="1">
          <mxGeometry x="370" y="700" width="140" height="70" as="geometry" />
        </mxCell>
      </root>
    </mxGraphModel>
  </diagram>
</mxfile>
